<?xml version="1.0" encoding="UTF-8" standalone="no"?>
<!DOCTYPE svg PUBLIC "-//W3C//DTD SVG 1.1//EN"
 "http://www.w3.org/Graphics/SVG/1.1/DTD/svg11.dtd">
<!-- Generated by graphviz version 2.40.1 (20161225.0304)
 -->
<!-- Title: G Pages: 1 -->
<svg width="158pt" height="399pt"
 viewBox="0.00 0.00 157.71 399.20" xmlns="http://www.w3.org/2000/svg" xmlns:xlink="http://www.w3.org/1999/xlink">
<g id="graph0" class="graph" transform="scale(1 1) rotate(0) translate(4 395.2)">
<title>G</title>
<polygon fill="#ffffff" stroke="transparent" points="-4,4 -4,-395.2 153.7075,-395.2 153.7075,4 -4,4"/>
<!-- I_A -->
<g id="node1" class="node">
<title>I_A</title>
<ellipse fill="none" stroke="#000000" cx="41" cy="-18" rx="27" ry="18"/>
<text text-anchor="middle" x="41" y="-13.8" font-family="Times,serif" font-size="14.00" fill="#000000">[A|]</text>
</g>
<!-- AB_C -->
<g id="node2" class="node">
<title>AB_C</title>
<ellipse fill="none" stroke="#000000" cx="77" cy="-106.8" rx="39.4982" ry="18"/>
<text text-anchor="middle" x="77" y="-102.6" font-family="Times,serif" font-size="14.00" fill="#000000">[C|AB]</text>
</g>
<!-- I_A&#45;&gt;AB_C -->
<g id="edge1" class="edge">
<title>I_A&#45;&gt;AB_C</title>
<path fill="none" stroke="#000000" d="M48.1124,-35.544C53.2071,-48.1108 60.1656,-65.2752 65.9765,-79.6088"/>
<polygon fill="#000000" stroke="#000000" points="62.7784,-81.0361 69.7791,-88.9885 69.2656,-78.4061 62.7784,-81.0361"/>
<text text-anchor="middle" x="68.0533" y="-58.2" font-family="Times,serif" font-size="14.00" fill="#000000">A</text>
</g>
<!-- C_D -->
<g id="node3" class="node">
<title>C_D</title>
<ellipse fill="none" stroke="#000000" cx="42" cy="-195.6" rx="32.6173" ry="18"/>
<text text-anchor="middle" x="42" y="-191.4" font-family="Times,serif" font-size="14.00" fill="#000000">[D|C]</text>
</g>
<!-- AB_C&#45;&gt;C_D -->
<g id="edge3" class="edge">
<title>AB_C&#45;&gt;C_D</title>
<path fill="none" stroke="#000000" d="M69.9172,-124.77C64.9987,-137.2489 58.3541,-154.1072 52.7813,-168.2464"/>
<polygon fill="#000000" stroke="#000000" points="49.3635,-167.3729 48.9528,-177.9598 55.876,-169.9398 49.3635,-167.3729"/>
<text text-anchor="middle" x="67.6683" y="-147" font-family="Times,serif" font-size="14.00" fill="#000000">C</text>
</g>
<!-- DC_E -->
<g id="node4" class="node">
<title>DC_E</title>
<ellipse fill="none" stroke="#000000" cx="111" cy="-284.4" rx="38.9162" ry="18"/>
<text text-anchor="middle" x="111" y="-280.2" font-family="Times,serif" font-size="14.00" fill="#000000">[E|DC]</text>
</g>
<!-- AB_C&#45;&gt;DC_E -->
<g id="edge5" class="edge">
<title>AB_C&#45;&gt;DC_E</title>
<path fill="none" stroke="#000000" d="M80.4472,-124.8066C86.3783,-155.788 98.5552,-219.394 105.6139,-256.2654"/>
<polygon fill="#000000" stroke="#000000" points="102.2257,-257.1822 107.5437,-266.3457 109.1009,-255.866 102.2257,-257.1822"/>
<text text-anchor="middle" x="101.6683" y="-191.4" font-family="Times,serif" font-size="14.00" fill="#000000">C</text>
</g>
<!-- C_D&#45;&gt;DC_E -->
<g id="edge4" class="edge">
<title>C_D&#45;&gt;DC_E</title>
<path fill="none" stroke="#000000" d="M54.9784,-212.3026C65.3211,-225.6132 79.9604,-244.4534 91.6803,-259.5364"/>
<polygon fill="#000000" stroke="#000000" points="88.9457,-261.7215 97.8452,-267.4704 94.4732,-257.4264 88.9457,-261.7215"/>
<text text-anchor="middle" x="87.0533" y="-235.8" font-family="Times,serif" font-size="14.00" fill="#000000">D</text>
</g>
<!-- D -->
<g id="node6" class="node">
<title>D</title>
</g>
<!-- C_D&#45;&gt;D -->
<g id="edge7" class="edge">
<title>C_D&#45;&gt;D</title>
<path fill="none" stroke="#000000" d="M38.9645,-213.57C36.9044,-225.7662 34.1376,-242.1457 31.7836,-256.0813"/>
<polygon fill="#000000" stroke="#000000" points="28.297,-255.7086 30.0824,-266.1519 35.1992,-256.8746 28.297,-255.7086"/>
<text text-anchor="middle" x="41.0533" y="-235.8" font-family="Times,serif" font-size="14.00" fill="#000000">D</text>
</g>
<!-- E -->
<g id="node7" class="node">
<title>E</title>
</g>
<!-- DC_E&#45;&gt;E -->
<g id="edge6" class="edge">
<title>DC_E&#45;&gt;E</title>
<path fill="none" stroke="#000000" d="M111,-302.7994C111,-314.9051 111,-330.9924 111,-344.7326"/>
<polygon fill="#000000" stroke="#000000" points="107.5001,-345.1279 111,-355.128 114.5001,-345.128 107.5001,-345.1279"/>
<text text-anchor="middle" x="115.2763" y="-324.6" font-family="Times,serif" font-size="14.00" fill="#000000">E</text>
</g>
<!-- B -->
<g id="node5" class="node">
<title>B</title>
</g>
<!-- B&#45;&gt;AB_C -->
<g id="edge2" class="edge">
<title>B&#45;&gt;AB_C</title>
<path fill="none" stroke="#000000" d="M105.5408,-36.3994C100.5027,-48.8266 93.7637,-65.4496 88.0991,-79.4222"/>
<polygon fill="#000000" stroke="#000000" points="84.7175,-78.4477 84.204,-89.0301 91.2047,-81.0777 84.7175,-78.4477"/>
<text text-anchor="middle" x="102.6683" y="-58.2" font-family="Times,serif" font-size="14.00" fill="#000000">B</text>
</g>
</g>
</svg>
