<svg xmlns="http://www.w3.org/2000/svg" viewBox="0 0 249.088 240"><g transform="translate(-7456.701 -6631.5)"><path d="M7581.245 6859.309a98.489 98.489 0 1 1 98.489-98.489 98.6 98.6 0 0 1-98.489 98.489zm0-195.265a96.776 96.776 0 1 0 96.776 96.775 96.885 96.885 0 0 0-96.776-96.775z" fill="#7d7d7d"/><circle cx="41.108" cy="41.108" r="41.108" transform="translate(7540.137 6719.711)" fill="#00a0e9"/><path d="M7580.282 6812.221a1.706 1.706 0 0 1 1.689-1.735 1.719 1.719 0 0 1 1.741 1.689 1.717 1.717 0 0 1-1.69 1.736h-.028a1.712 1.712 0 0 1-1.712-1.69zm-5.327 1.325a1.719 1.719 0 0 1-1.5-1.907 1.718 1.718 0 0 1 1.9-1.5 1.71 1.71 0 0 1 1.5 1.9 1.713 1.713 0 0 1-1.7 1.512c-.062.006-.131 0-.2-.005zm12.167-1.65a1.717 1.717 0 0 1 1.445-1.947 1.71 1.71 0 0 1 1.941 1.444 1.708 1.708 0 0 1-1.439 1.948 2.144 2.144 0 0 1-.251.017 1.713 1.713 0 0 1-1.696-1.462zm-19.12.348a1.709 1.709 0 0 1-1.235-2.084 1.714 1.714 0 0 1 2.085-1.233 1.717 1.717 0 0 1 1.234 2.084 1.72 1.72 0 0 1-1.662 1.29 1.54 1.54 0 0 1-.421-.057zm25.858-1.576a1.711 1.711 0 0 1 1.17-2.118 1.715 1.715 0 0 1 2.125 1.169 1.711 1.711 0 0 1-1.171 2.119 1.744 1.744 0 0 1-.479.068 1.716 1.716 0 0 1-1.646-1.237zm-32.578-.633a1.714 1.714 0 0 1-.948-2.233 1.715 1.715 0 0 1 2.232-.941 1.714 1.714 0 0 1 .948 2.232 1.727 1.727 0 0 1-1.593 1.067 1.7 1.7 0 0 1-.64-.125zm39.092-1.48a1.713 1.713 0 0 1 .879-2.26 1.725 1.725 0 0 1 2.261.879 1.72 1.72 0 0 1-.885 2.26 1.707 1.707 0 0 1-.686.143 1.711 1.711 0 0 1-1.57-1.022zm-45.458-1.615a1.712 1.712 0 0 1-.639-2.336 1.711 1.711 0 0 1 2.341-.632 1.713 1.713 0 0 1 .634 2.334 1.7 1.7 0 0 1-1.49.863 1.7 1.7 0 0 1-.847-.228zm51.63-1.353a1.711 1.711 0 0 1 .571-2.353 1.711 1.711 0 0 1 2.353.571 1.708 1.708 0 0 1-.565 2.352 1.692 1.692 0 0 1-.891.251 1.721 1.721 0 0 1-1.469-.82zm-57.528-2.558a1.723 1.723 0 0 1-.32-2.4 1.711 1.711 0 0 1 2.4-.319 1.713 1.713 0 0 1 .32 2.4 1.705 1.705 0 0 1-1.358.668 1.743 1.743 0 0 1-1.043-.348zm63.249-1.206a1.714 1.714 0 0 1 .251-2.409 1.714 1.714 0 0 1 2.409.251 1.714 1.714 0 0 1-.251 2.41 1.711 1.711 0 0 1-1.079.383 1.708 1.708 0 0 1-1.331-.634zm-68.571-3.459a1.714 1.714 0 0 1 0-2.421 1.72 1.72 0 0 1 2.427 0 1.712 1.712 0 0 1 0 2.421 1.714 1.714 0 0 1-1.217.5 1.712 1.712 0 0 1-1.211-.499zm73.744-1.034a1.709 1.709 0 0 1-.068-2.42 1.713 1.713 0 0 1 2.421-.069 1.713 1.713 0 0 1 .068 2.421 1.7 1.7 0 0 1-1.245.537 1.709 1.709 0 0 1-1.177-.468zm4.54-5.132a1.712 1.712 0 0 1-.394-2.392 1.716 1.716 0 0 1 2.393-.389 1.714 1.714 0 0 1 .387 2.392 1.715 1.715 0 0 1-1.392.713 1.7 1.7 0 0 1-.996-.319zm3.808-5.692a1.715 1.715 0 0 1-.708-2.318 1.714 1.714 0 0 1 2.318-.7 1.712 1.712 0 0 1 .708 2.317 1.712 1.712 0 0 1-1.513.9 1.711 1.711 0 0 1-.807-.202zm3.015-6.149a1.72 1.72 0 0 1-1.011-2.2 1.722 1.722 0 0 1 2.2-1.011 1.722 1.722 0 0 1 1.01 2.205 1.719 1.719 0 0 1-1.609 1.119 1.717 1.717 0 0 1-.59-.112zm2.17-6.5a1.72 1.72 0 0 1-1.3-2.05 1.717 1.717 0 0 1 2.049-1.3 1.72 1.72 0 0 1 1.3 2.049 1.718 1.718 0 0 1-1.673 1.337 1.666 1.666 0 0 1-.378-.033zm1.285-6.732a1.715 1.715 0 0 1-1.548-1.861 1.715 1.715 0 0 1 1.861-1.547 1.719 1.719 0 0 1 1.553 1.861h-.006a1.709 1.709 0 0 1-1.7 1.554 1.376 1.376 0 0 1-.162-.004zm-1.382-8.479a1.713 1.713 0 0 1 1.639-1.781 1.716 1.716 0 0 1 1.781 1.639 1.717 1.717 0 0 1-1.639 1.787h-.069a1.716 1.716 0 0 1-1.714-1.641zm-.725-6.572a1.707 1.707 0 0 1 1.381-1.987 1.712 1.712 0 0 1 1.992 1.382 1.715 1.715 0 0 1-1.387 1.987 1.828 1.828 0 0 1-.3.029 1.711 1.711 0 0 1-1.688-1.407z" fill="#00a0e9"/><path d="M7544.91 6798.868a1.708 1.708 0 0 1-1.211-.5 53.1 53.1 0 1 1 75.092-75.092 1.713 1.713 0 1 1-2.423 2.421 49.673 49.673 0 0 0-70.248 70.249 1.713 1.713 0 0 1-1.21 2.924z" fill="#00a0e9"/><path d="M7613.946 6728.118l10.9 3.634-3.633-10.9z" fill="#00a0e9"/><g transform="translate(7549.557 6631.5)"><circle cx="30.831" cy="30.831" r="30.831" transform="translate(.857 .856)" fill="#fff"/><path d="M31.687 63.374a31.687 31.687 0 1 1 31.688-31.687 31.723 31.723 0 0 1-31.688 31.687zm0-61.662a29.975 29.975 0 1 0 29.977 29.975A30.009 30.009 0 0 0 31.687 1.712z" fill="#00a0e9"/></g><g transform="translate(7456.701 6698.959)"><circle cx="30.831" cy="30.831" r="30.831" transform="translate(.859 .86)" fill="#fff"/><path d="M31.724 63.395a31.742 31.742 0 1 1 14.352-3.47 31.775 31.775 0 0 1-14.352 3.47zm-.013-61.682a30 30 0 1 0 9.242 1.471 30.027 30.027 0 0 0-9.241-1.471z" fill="#00a0e9"/></g><g transform="translate(7492.182 6808.11)"><circle cx="30.831" cy="30.831" r="30.831" transform="translate(.845 .864)" fill="#fff"/><path d="M31.608 63.389A31.7 31.7 0 0 1 6.04 13.07a31.688 31.688 0 1 1 30.593 49.922 32.15 32.15 0 0 1-5.025.397zM7.426 14.076A29.973 29.973 0 1 0 26.987 2.089 30.009 30.009 0 0 0 7.426 14.076z" fill="#00a0e9"/></g><g transform="translate(7606.937 6808.111)"><circle cx="30.831" cy="30.831" r="30.831" transform="translate(.864 .863)" fill="#fff"/><path d="M31.737 63.37a31.657 31.657 0 1 1 18.583-6.039 31.659 31.659 0 0 1-18.583 6.039zm-.106-61.657a29.98 29.98 0 0 0-24.186 47.6A29.975 29.975 0 1 0 36.384 2.088a30.38 30.38 0 0 0-4.753-.376z" fill="#00a0e9"/></g><g transform="translate(7642.396 6698.959)"><circle cx="30.831" cy="30.831" r="30.831" transform="translate(.872 .859)" fill="#fff"/><path d="M31.67 63.393a31.734 31.734 0 1 1 9.824-1.567 31.754 31.754 0 0 1-9.824 1.567zM31.733 1.7A30.022 30.022 0 1 0 45.31 4.982 30.014 30.014 0 0 0 31.734 1.7zm9.5 59.313z" fill="#00a0e9"/></g><path d="M7558.566 6746.495a20.4 20.4 0 0 1-.976.24c-.514.1-.514.1-.72-.411a6.1 6.1 0 0 0-.5-.942 16.2 16.2 0 0 0 3.752-1.01 4.8 4.8 0 0 0 .838-.463 7.82 7.82 0 0 1 .994 1.028.523.523 0 0 1 .153.308c0 .137-.12.205-.291.205a1.892 1.892 0 0 0-.548.172c-.325.137-.685.257-1.062.393v2.484c.993 0 1.336-.035 1.422-.035.171 0 .188.018.188.188v1.2c0 .171-.017.188-.188.188-.085 0-.395-.016-1.286-.033a9.757 9.757 0 0 0 1.7 2.551 3.427 3.427 0 0 0-.6 1.045c-.085.206-.136.308-.222.308-.051 0-.137-.085-.24-.257a10.274 10.274 0 0 1-.823-1.729c0 4.162.1 7.057.1 7.348 0 .171-.017.189-.188.189h-1.362c-.17 0-.188-.018-.188-.189 0-.291.1-3.2.138-7a13.587 13.587 0 0 1-1.627 3.6c-.12.188-.206.274-.291.274s-.154-.085-.206-.274a6.732 6.732 0 0 0-.565-1.3 12.881 12.881 0 0 0 2.4-4.556h-.223c-1.2 0-1.559.033-1.661.033-.171 0-.188-.016-.188-.187v-1.2c0-.17.017-.188.188-.188.1 0 .462.035 1.661.035h.428zm10.534-1.01c1.627 0 2.209-.035 2.312-.035.188 0 .206.017.206.189 0 .1-.034.324-.034.633v.514c0 1.182.034 1.37.034 1.473 0 .188-.018.206-.206.206h-.891v.634c0 .171-.018.188-.2.188-.1 0-.531-.034-1.765-.034a19.19 19.19 0 0 0 .548 2.088c.171-.188.359-.41.548-.649a3.942 3.942 0 0 0 .531-.892 8.681 8.681 0 0 1 1.2.84c.17.137.239.206.239.326s-.085.171-.188.223a1.493 1.493 0 0 0-.583.48 15.676 15.676 0 0 1-1.165 1.215 10.9 10.9 0 0 0 2.535 3.717 6.018 6.018 0 0 0-.787 1.2c-.12.257-.189.377-.291.377s-.172-.085-.309-.239a19.38 19.38 0 0 1-3.751-8.684 11.059 11.059 0 0 1-1.08 1.113 9.381 9.381 0 0 1 2.175 6.046c0 2.124-.8 2.877-2.637 2.877-.292 0-.53 0-.736-.017-.342-.017-.342-.017-.462-.565a3.347 3.347 0 0 0-.429-1.011c.719.068 1.113.085 1.474.085.77 0 1.2-.325 1.2-1.524 0-.274-.017-.531-.034-.788a13.555 13.555 0 0 1-3.974 2.689 1.276 1.276 0 0 1-.376.12c-.12 0-.207-.1-.36-.36a4.229 4.229 0 0 0-.771-.958 14.029 14.029 0 0 0 5.172-3.032 8.251 8.251 0 0 0-.292-.737 12.443 12.443 0 0 1-3.065 1.867 1.287 1.287 0 0 1-.394.137c-.137 0-.189-.119-.325-.394a4.461 4.461 0 0 0-.7-.977 11.121 11.121 0 0 0 3.819-1.833q-.231-.359-.513-.719a11.753 11.753 0 0 1-1.867.925 1.506 1.506 0 0 1-.394.12c-.155 0-.207-.12-.36-.446a3.471 3.471 0 0 0-.634-.924 8.417 8.417 0 0 0 3.563-1.7c-1.335 0-1.816.034-1.9.034-.171 0-.189-.017-.189-.188v-.634h-.959c-.188 0-.206-.017-.206-.206 0-.1.034-.292.034-1.473v-.411c0-.412-.034-.634-.034-.736 0-.172.018-.189.206-.189.1 0 .686.035 2.313.035h1.4v-.206a6.857 6.857 0 0 0-.12-1.508c.633.017 1.147.052 1.747.12.172.017.274.086.274.171a.813.813 0 0 1-.1.36 2.118 2.118 0 0 0-.085.822v.24zm-5.6 1.354v1.061c.292.018.8.018 1.7.018h3.117c.8 0 1.285 0 1.593-.018v-1.061zm13.359-.071c.155.068.274.188.274.308a1.483 1.483 0 0 1-.137.479 7.675 7.675 0 0 0-.154 1.679 21.545 21.545 0 0 0 .309 3.905c.24 1.353.685 2.518 1.4 2.518.548 0 .976-.6 1.645-2.381a6.53 6.53 0 0 0 1.1 1.319.524.524 0 0 1 .12.633c-.651 1.748-1.712 2.672-2.912 2.672-1.336 0-2.741-1.576-3.2-4.47a30.95 30.95 0 0 1-.411-4.984 9.177 9.177 0 0 0-.206-2.244 7.4 7.4 0 0 1 2.172.566zm7.948 1.078a.525.525 0 0 1 .188-.068.266.266 0 0 1 .188.1 11.329 11.329 0 0 1 3.357 5.858c.052.222-.052.291-.188.377a5.826 5.826 0 0 1-1.336.685c-.205.068-.325.017-.36-.188a11.537 11.537 0 0 0-3.2-5.977c.649-.41 1.077-.649 1.351-.787zm14.61-.016c-2.09.393-3.922.752-5.754 1.129-.652.155-.822.189-1.08.275a1 1 0 0 1-.376.136.4.4 0 0 1-.325-.256 12.042 12.042 0 0 1-.635-1.849 23.744 23.744 0 0 0 2.725-.292c2.105-.308 5.874-.874 10.293-1.456.256-.034.342.068.36.188a9.879 9.879 0 0 1 .188 1.507c0 .207-.1.257-.325.257a7.634 7.634 0 0 0-2.09.376c-2.912.995-4.367 3-4.367 5.053 0 2.21 1.576 3.409 4.556 3.6.274 0 .377.068.377.257a6.1 6.1 0 0 1-.189 1.474c-.051.257-.12.359-.325.359-3.015 0-6.321-1.729-6.321-5.292 0-2.432 1.217-4.077 3.289-5.43zm3.391 1.849c.086-.068.155-.052.257.034a7.888 7.888 0 0 1 1.628 1.833.172.172 0 0 1-.052.273l-.718.531a.18.18 0 0 1-.292-.051 8.46 8.46 0 0 0-1.729-1.986zm1.524-1.113c.1-.068.155-.051.257.034a7.17 7.17 0 0 1 1.628 1.764.2.2 0 0 1-.052.309l-.685.531a.176.176 0 0 1-.292-.052 8.1 8.1 0 0 0-1.712-1.968zm-41.823 27.029c0 1.575.685 2.193 2.277 2.193 2 0 3.117-.771 3.117-2.313 0-.959-.24-1.747-1.54-3.117a5.446 5.446 0 0 0 1.747-.1.391.391 0 0 1 .359.069 4.466 4.466 0 0 1 1.457 3.22c0 2.433-1.987 4.009-4.933 4.009-3.031 0-4.315-1.371-4.315-3.872 0-.359.051-.838.119-1.609a13.622 13.622 0 0 1-2.329-.513c-.12-.035-.171-.12-.189-.326a9.924 9.924 0 0 1-.033-1.593 10.676 10.676 0 0 0 2.773.668c.087-.633.223-1.747.292-2.449a11.9 11.9 0 0 1-2.466-.48c-.206-.051-.274-.137-.274-.292-.017-.411-.052-.976-.052-1.593a13.825 13.825 0 0 0 3.1.651c.136-.993.188-1.455.223-1.969a8.179 8.179 0 0 0-.018-1.44 10.281 10.281 0 0 1 2.056.48c.24.086.377.24.377.395a.5.5 0 0 1-.137.325 1.693 1.693 0 0 0-.309.737c-.084.394-.187.977-.274 1.61a9.788 9.788 0 0 0 2.107-.1c.12 0 .172.085.172.205a8.238 8.238 0 0 1-.035 1.284c0 .189-.069.24-.273.257a16.864 16.864 0 0 1-2.279.086c-.1.6-.274 1.764-.376 2.45.907.017 1.61 0 2.432-.052.224-.035.274.034.274.188a11.546 11.546 0 0 1-.085 1.284c-.018.206-.069.274-.24.274-.856.069-1.747.069-2.621.052a10.629 10.629 0 0 0-.104 1.381zm15.822-6.543c.188.085.275.188.275.325a.5.5 0 0 1-.087.257 3.278 3.278 0 0 0-.341.908 28.672 28.672 0 0 0-.411 3.118 8.348 8.348 0 0 1 5.721-2.706c2.5 0 3.99 1.456 3.99 3.665a4.2 4.2 0 0 1-2.585 3.837 14.872 14.872 0 0 1-4.385 1.182c-.376.051-.531.034-.685-.223a4.408 4.408 0 0 0-1.165-1.455 14.219 14.219 0 0 0 4.71-.96 2.8 2.8 0 0 0 2.02-2.585c0-.926-.582-1.764-2.055-1.764a7.626 7.626 0 0 0-4.932 2.6 4.686 4.686 0 0 0-.737.942c-.1.171-.17.171-.393.12a12 12 0 0 1-1.165-.463c-.172-.068-.24-.1-.24-.342.1-1.987.324-4.008.531-5.532a10.707 10.707 0 0 0 .153-1.542 9.546 9.546 0 0 1 1.781.618zm.428-4.333a.288.288 0 0 1 .326-.086 11.255 11.255 0 0 1 3.358 2.039c.085.068.119.12.119.188a.468.468 0 0 1-.085.205 11.14 11.14 0 0 1-.874 1.2c-.068.085-.136.137-.188.137-.068 0-.12-.033-.206-.12a13.663 13.663 0 0 0-3.46-2.227 9.565 9.565 0 0 1 1.011-1.336zm16.428 4.914a12.313 12.313 0 0 1 3.922-.856c2.3 0 3.613 1.56 3.613 4.077a6.714 6.714 0 0 1-1.387 4.094 9.657 9.657 0 0 1-3.306 2.723.762.762 0 0 1-.29.085.557.557 0 0 1-.412-.223 4.231 4.231 0 0 0-1.421-.907 9.32 9.32 0 0 0 3.767-2.86 5.011 5.011 0 0 0 .943-3.032c0-1.422-.6-2.158-1.593-2.158a5.737 5.737 0 0 0-2.689.736 8.07 8.07 0 0 0-1.456.822.632.632 0 0 1-.377.171c-.222 0-.377-.223-.479-.376a11.778 11.778 0 0 1-.874-1.8 8.882 8.882 0 0 0 2.039-.496zm6.251-3.938a.245.245 0 0 1 .223.309 14.038 14.038 0 0 1-.376 1.507c-.052.171-.1.257-.24.24a22.67 22.67 0 0 1-4.968-1.319c-.086-.035-.17-.12-.12-.343a8.077 8.077 0 0 1 .514-1.609 21.513 21.513 0 0 0 4.967 1.215z" fill="#fff"/><path d="M7564.087 6657.852c1.084 0 1.441-.029 1.527-.029.143 0 .156.015.156.158v1.012c0 .159-.014.172-.156.172-.085 0-.442-.028-1.527-.028h-1.855c-1.084 0-1.441.028-1.512.028-.143 0-.158-.013-.158-.172v-1.012c0-.144.016-.158.158-.158.071 0 .428.029 1.512.029zm7.134 3.5a.736.736 0 0 0 .314-.058.474.474 0 0 1 .214-.071c.1 0 .271.129.542.4.329.344.443.5.443.6a.263.263 0 0 1-.158.258.974.974 0 0 0-.341.441 10.37 10.37 0 0 1-1.7 2.655 9.485 9.485 0 0 0 3.1 1.369 4.624 4.624 0 0 0-.613 1c-.129.271-.172.385-.286.385a1.254 1.254 0 0 1-.329-.1 3.339 3.339 0 0 0-5.808.071.869.869 0 0 1-.329.1c-.114 0-.17-.1-.3-.356a2.749 2.749 0 0 0-.671-.843c.015.572.029.758.029.814 0 .143-.014.157-.157.157h-1.013c-.143 0-.158-.015-.158-.157v-.471h-1.54v.742c0 .143-.015.156-.158.156h-1.012c-.159 0-.172-.014-.172-.156 0-.1.029-.428.029-2.155v-.913c0-.9-.029-1.242-.029-1.342 0-.143.014-.156.172-.156.084 0 .385.028 1.3.028h1.27c.928 0 1.213-.028 1.313-.028.143 0 .157.014.157.156 0 .087-.029.428-.029 1.1v2.212a9.792 9.792 0 0 0 3.182-1.6 8.841 8.841 0 0 1-1.683-2.968c-.414 0-.6.014-.643.014-.142 0-.157-.014-.157-.171v-1c0-.13.015-.143.157-.143.086 0 .5.027 1.741.027zm-7.305-5.451c.926 0 1.2-.028 1.283-.028.157 0 .172.015.172.157v.956c0 .143-.015.156-.172.156-.085 0-.357-.028-1.283-.028h-1.3c-.927 0-1.212.028-1.3.028-.143 0-.157-.014-.157-.156v-.956c0-.143.014-.157.157-.157.085 0 .371.028 1.3.028zm-.115 4c.871 0 1.127-.029 1.2-.029.158 0 .172.015.172.143v.928c0 .144-.014.156-.172.156-.071 0-.328-.027-1.2-.027h-1.127c-.871 0-1.128.027-1.213.027-.143 0-.158-.013-.158-.156v-.928c0-.128.015-.143.158-.143.085 0 .342.029 1.213.029zm0 1.911c.871 0 1.127-.028 1.2-.028.158 0 .172.015.172.157v.913c0 .143-.014.157-.172.157-.071 0-.328-.028-1.2-.028h-1.127c-.871 0-1.128.028-1.213.028-.143 0-.158-.015-.158-.157v-.913c0-.143.015-.157.158-.157.085 0 .342.028 1.213.028zm-1.341 3.126v1.426h1.54v-1.426zm6.021-7.777a4.65 4.65 0 0 1-1.4 3.639c-.157.157-.257.229-.343.229s-.185-.086-.342-.271a2.947 2.947 0 0 0-.785-.628 3.32 3.32 0 0 0 1.484-3.11c0-.642-.029-.971-.029-1.056 0-.143.015-.158.172-.158.085 0 .342.029 1.255.029h1.427c.913 0 1.2-.029 1.284-.029.143 0 .157.016.157.158 0 .085-.028.427-.028 1.155v1.483a.728.728 0 0 0 .1.486c.071.072.171.085.4.085a.406.406 0 0 0 .385-.2 3.7 3.7 0 0 0 .143-1.285 4.1 4.1 0 0 0 .843.386c.356.114.342.143.328.514-.043.856-.186 1.257-.513 1.526a2.163 2.163 0 0 1-1.456.329 2.462 2.462 0 0 1-1.213-.2 1.051 1.051 0 0 1-.385-.984v-2.1zm-.286 5.451a6.832 6.832 0 0 0 1.3 2.069 7 7 0 0 0 1.341-2.069zm10.907-4.789c1.084 0 1.441-.029 1.526-.029.128 0 .143.014.143.157v1.013c0 .156-.014.171-.143.171-.085 0-.442-.028-1.526-.028h-2.626c-1.084 0-1.441.028-1.512.028-.143 0-.157-.015-.157-.171v-1.013c0-.143.014-.157.157-.157.071 0 .428.029 1.512.029zm1.084 8.134c0 1.655.029 1.969.029 2.054 0 .143-.014.158-.156.158h-1.128c-.143 0-.158-.015-.158-.158v-.457h-1.811v.714c0 .143-.014.158-.158.158h-1.113c-.157 0-.171-.015-.171-.158 0-.085.028-.413.028-2.14v-.941c0-.9-.028-1.242-.028-1.342 0-.143.014-.157.171-.157.085 0 .385.029 1.3.029h1.755c.914 0 1.213-.029 1.313-.029.142 0 .156.014.156.157 0 .085-.029.428-.029 1.1zm-1.37-10.062c.914 0 1.2-.028 1.284-.028.158 0 .171.014.171.157v.942c0 .143-.014.157-.171.157-.085 0-.37-.028-1.284-.028h-1.783c-.928 0-1.213.028-1.3.028-.143 0-.158-.014-.158-.157v-.942c0-.143.015-.157.158-.157.085 0 .37.028 1.3.028zm-.157 3.953c.857 0 1.113-.028 1.2-.028.157 0 .171.014.171.157v.928c0 .143-.014.156-.171.156-.085 0-.341-.028-1.2-.028h-1.583c-.872 0-1.128.028-1.214.028-.143 0-.157-.014-.157-.156v-.928c0-.143.014-.157.157-.157.086 0 .342.028 1.214.028zm0 1.926c.857 0 1.113-.027 1.2-.027.157 0 .171.013.171.156v.914c0 .143-.014.157-.171.157-.085 0-.341-.029-1.2-.029h-1.583c-.872 0-1.128.029-1.214.029-.143 0-.157-.015-.157-.157v-.914c0-.143.014-.156.157-.156.086 0 .342.027 1.214.027zm-1.7 3.154v1.413h1.811v-1.413zm6.492-7.449a13.281 13.281 0 0 0-.114-2.155c.542.015 1.1.043 1.569.1.143.015.229.086.229.157a1.17 1.17 0 0 1-.071.285 5.5 5.5 0 0 0-.1 1.584v2.555h.914c1.3 0 1.741-.029 1.812-.029.158 0 .172.015.172.171v1.156c0 .143-.014.158-.172.158-.071 0-.514-.029-1.812-.029h-.914v4.31c0 1.612.029 2.426.029 2.5 0 .156-.014.17-.143.17h-1.284c-.128 0-.143-.014-.143-.17 0-.071.028-.885.028-2.484v-4.323h-.8c-1.3 0-1.741.029-1.827.029-.157 0-.17-.015-.17-.158v-1.156c0-.157.014-.171.17-.171.086 0 .529.029 1.827.029h.8zm12.209 2.484a12.584 12.584 0 0 1-.714 3.438 8.639 8.639 0 0 1-4.309 4.667 1.326 1.326 0 0 1-.342.128c-.115 0-.186-.085-.344-.3a3.2 3.2 0 0 0-.9-.828 7.419 7.419 0 0 0 4.438-4.238 11.328 11.328 0 0 0 .6-2.868h-2.227c-1.37 0-1.842.028-1.913.028-.155 0-.171-.014-.171-.157v-1.17c0-.143.016-.157.171-.157.071 0 .543.029 1.913.029h2.3c0-.414.015-.828.015-1.241a11.7 11.7 0 0 0-.128-1.9 15.037 15.037 0 0 1 1.684.157c.214.029.286.1.286.2a.6.6 0 0 1-.13.357 4.051 4.051 0 0 0-.113 1.213c0 .385 0 .8-.014 1.213h3c1.384 0 1.855-.029 1.955-.029.143 0 .17.029.17.171-.027.429-.027.914-.027 1.284a41.453 41.453 0 0 1-.442 6.265c-.257 1.37-.956 1.87-2.384 1.884a10.093 10.093 0 0 1-1.369-.058c-.442-.043-.442-.057-.528-.513a3.6 3.6 0 0 0-.414-1.128 11.192 11.192 0 0 0 2.141.187c.527 0 .9-.2 1.042-.957a34.571 34.571 0 0 0 .37-5.68zm59.097 70.01c0-.514.015-1.128.029-1.728-.271.386-.557.742-.855 1.1-.115.129-.2.2-.258.2s-.114-.07-.157-.242a4.3 4.3 0 0 0-.486-1.284 13.16 13.16 0 0 0 2.627-4.523 5.024 5.024 0 0 0 .242-1.014 13.367 13.367 0 0 1 1.384.429c.157.056.242.114.242.213s-.042.157-.171.258c-.085.057-.157.2-.3.57a20.261 20.261 0 0 1-.856 1.956v7.349c0 1.4.028 2.1.028 2.17 0 .143-.014.155-.157.155h-1.2c-.128 0-.143-.013-.143-.155 0-.088.028-.771.028-2.17zm9.176-3.268a.761.761 0 0 0 .4-.058.45.45 0 0 1 .229-.057c.085 0 .2.027.556.371.371.37.442.47.442.585 0 .1-.042.157-.143.257a1.306 1.306 0 0 0-.272.527 13.723 13.723 0 0 1-1.7 3.768 11.937 11.937 0 0 0 3.125 1.912 3.527 3.527 0 0 0-.627 1.041c-.1.229-.144.328-.243.328a1.047 1.047 0 0 1-.343-.142 13.61 13.61 0 0 1-2.826-1.983 10.613 10.613 0 0 1-2.64 2.069.967.967 0 0 1-.342.143c-.1 0-.158-.1-.286-.328a3.618 3.618 0 0 0-.685-.9 9.918 9.918 0 0 0 2.983-2.054 9.17 9.17 0 0 1-1.869-4.182h-.128a17.978 17.978 0 0 1-.314 3.439 9.784 9.784 0 0 1-1.6 3.739c-.128.155-.2.243-.257.243s-.143-.088-.271-.258a3.983 3.983 0 0 0-.757-.886 7.012 7.012 0 0 0 1.485-3.282 21.932 21.932 0 0 0 .257-4.323c0-2.184-.029-3.14-.029-3.226 0-.142.014-.157.172-.157.085 0 .585.029 1.939.029h4.025c1.355 0 1.826-.029 1.912-.029.128 0 .143.016.143.157v1.113c0 .144-.014.156-.143.156-.086 0-.557-.027-1.912-.027h-4.638v2.013zm-2.954 1.3a7.974 7.974 0 0 0 1.484 3.083 9.922 9.922 0 0 0 1.313-3.083zm9.991-2.969c1.1 0 1.441-.03 1.526-.03.143 0 .156.015.156.158v1.013c0 .158-.014.171-.156.171-.085 0-.428-.028-1.526-.028h-1.642c-1.085 0-1.44.028-1.512.028-.144 0-.158-.014-.158-.171v-1.013c0-.143.015-.158.158-.158.071 0 .427.03 1.512.03zm7.148 8.476c0 .243.015.357.129.428a.916.916 0 0 0 .542.1.658.658 0 0 0 .585-.2c.129-.156.173-.457.2-1.541a2.914 2.914 0 0 0 .87.428c.357.114.371.114.343.485-.071 1.156-.271 1.613-.585 1.855a2.67 2.67 0 0 1-1.612.357 2.783 2.783 0 0 1-1.413-.229c-.258-.185-.413-.457-.413-1.17v-4.167h-.814c-.086 2.8-.813 4.325-2.412 5.552-.156.114-.256.185-.328.185-.1 0-.171-.085-.314-.27a4.754 4.754 0 0 0-.584-.614c0 .271.014.371.014.414 0 .143-.014.158-.156.158h-1.014c-.143 0-.156-.015-.156-.158v-.314h-1.441v.658c0 .127-.016.142-.157.142h-1.014c-.157 0-.171-.015-.171-.142 0-.1.028-.429.028-2.156v-.913c0-.9-.028-1.242-.028-1.341 0-.143.014-.157.171-.157.086 0 .386.028 1.3.028h1.17c.928 0 1.228-.028 1.313-.028.143 0 .156.014.156.157 0 .085-.028.428-.028 1.1v2.3c1.6-.941 2.227-2.125 2.3-4.6-.813.015-1.113.029-1.185.029-.157 0-.171-.014-.171-.156 0-.086.028-.428.028-1.242v-1.741c0-.828-.028-1.156-.028-1.242 0-.143.014-.157.171-.157.086 0 .5.028 1.741.028h1.655a15.943 15.943 0 0 0 .814-1.956 4.347 4.347 0 0 0 .185-.9 14.093 14.093 0 0 1 1.413.414c.1.043.186.114.186.2a.319.319 0 0 1-.144.256 1.469 1.469 0 0 0-.271.457c-.172.414-.4.928-.714 1.527.956 0 1.327-.028 1.413-.028.144 0 .156.014.156.157 0 .071-.028.414-.028 1.242v1.741c0 .813.028 1.155.028 1.242 0 .143-.013.156-.156.156-.1 0-.486-.029-1.57-.029zm-7.207-10.432c.929 0 1.215-.028 1.286-.028.156 0 .17.015.17.157v.941c0 .143-.014.157-.17.157-.071 0-.357-.028-1.286-.028h-1.2c-.928 0-1.214.028-1.3.028-.143 0-.157-.014-.157-.157v-.941c0-.143.015-.157.157-.157.085 0 .371.028 1.3.028zm-.128 3.981c.87 0 1.128-.028 1.214-.028.143 0 .156.014.156.157v.928c0 .143-.014.156-.156.156-.086 0-.344-.028-1.214-.028h-1.013c-.87 0-1.128.028-1.214.028-.142 0-.156-.013-.156-.156v-.928c0-.143.015-.157.156-.157.086 0 .344.028 1.214.028zm0 1.926c.87 0 1.128-.028 1.214-.028.143 0 .156.014.156.157v.913c0 .143-.014.158-.156.158-.086 0-.344-.029-1.214-.029h-1.013c-.87 0-1.128.029-1.214.029-.142 0-.156-.016-.156-.158v-.913c0-.143.015-.157.156-.157.086 0 .344.028 1.214.028zm-1.227 3.126v1.513h1.441v-1.513zm5.138-9.4c.17-.072.214-.058.285.043a8.889 8.889 0 0 1 .955 1.8c.058.143.015.186-.143.257l-.9.385c-.171.071-.2.071-.257-.071a8.7 8.7 0 0 0-.9-1.841c-.086-.114-.057-.157.1-.229zm3.725 3.938h-3.8v1.9h3.8zm10.094.496a12.548 12.548 0 0 1-.714 3.44 8.639 8.639 0 0 1-4.309 4.667 1.333 1.333 0 0 1-.343.127c-.114 0-.186-.085-.343-.3a3.183 3.183 0 0 0-.9-.828 7.416 7.416 0 0 0 4.438-4.238 11.335 11.335 0 0 0 .6-2.869h-2.227c-1.37 0-1.841.029-1.912.029-.157 0-.171-.014-.171-.158v-1.17c0-.143.014-.157.171-.157.071 0 .542.028 1.912.028h2.3c0-.414.015-.827.015-1.241a11.819 11.819 0 0 0-.127-1.9 14.984 14.984 0 0 1 1.683.158c.215.029.286.1.286.2a.6.6 0 0 1-.129.356 4.022 4.022 0 0 0-.113 1.213c0 .386 0 .8-.015 1.213h3c1.384 0 1.854-.028 1.954-.028.143 0 .171.028.171.171-.028.428-.028.914-.028 1.284a41.488 41.488 0 0 1-.441 6.266c-.257 1.37-.957 1.869-2.385 1.883a10.11 10.11 0 0 1-1.369-.057c-.442-.043-.442-.056-.528-.514a3.549 3.549 0 0 0-.414-1.127 11.27 11.27 0 0 0 2.142.186c.527 0 .9-.2 1.042-.956a34.576 34.576 0 0 0 .37-5.681zm-62.273 104.803c.186-.085.214-.071.271.071a11.432 11.432 0 0 0 4.624 5.266 4.873 4.873 0 0 0-.828 1.07c-.128.214-.186.313-.271.313s-.156-.072-.3-.186a11.956 11.956 0 0 1-1.356-1.156c-.028.414-.028.913-.042 1.413a28.373 28.373 0 0 1-.357 4 1.847 1.847 0 0 1-2.126 1.756c-.356 0-.627 0-.97-.028-.443-.029-.428-.029-.528-.5a2.92 2.92 0 0 0-.443-1.141 10.665 10.665 0 0 0 1.627.128c.6 0 .843-.228.957-.885a23.412 23.412 0 0 0 .271-3.54h-2.54a6.9 6.9 0 0 1-4.339 6.051.937.937 0 0 1-.342.114c-.114 0-.158-.1-.3-.343a2.663 2.663 0 0 0-.728-.856c2.6-.943 3.854-2.455 4.125-4.967h-.172c-1.341 0-1.8.029-1.883.029-.143 0-.157-.014-.157-.157v-1.042a15.751 15.751 0 0 1-1.385 1.184c-.157.114-.242.186-.313.186-.1 0-.157-.1-.3-.314a3.194 3.194 0 0 0-.8-.87 11.144 11.144 0 0 0 4.125-4.709 4.037 4.037 0 0 0 .286-.914 9.982 9.982 0 0 1 1.483.5c.158.071.2.143.2.243a.293.293 0 0 1-.114.213 1.147 1.147 0 0 0-.329.457 12.873 12.873 0 0 1-2.612 3.782c.2.014.7.028 1.8.028h3.838c1.242 0 1.712-.015 1.855-.028a15 15 0 0 1-3.067-4.523c-.058-.157-.029-.171.128-.243zm9.492 3.909a9.972 9.972 0 0 0 1.812 2.867 3.611 3.611 0 0 0-.484.942c-.058.156-.115.243-.173.243s-.128-.072-.212-.215a11.877 11.877 0 0 1-1.057-2.041c.014 3.753.1 6.679.1 6.936 0 .143-.014.157-.156.157h-1.171c-.142 0-.157-.015-.157-.157 0-.242.086-2.954.1-6.265a12.07 12.07 0 0 1-1.513 3.14c-.1.143-.171.214-.228.214s-.1-.071-.157-.229a4.3 4.3 0 0 0-.485-1.084 11.954 11.954 0 0 0 2.255-4.509h-.258c-1.056 0-1.412.027-1.5.027-.143 0-.157-.014-.157-.17v-1.014c0-.129.014-.144.157-.144.086 0 .442.029 1.5.029h.343v-.956a10.742 10.742 0 0 0-.113-1.94 13.678 13.678 0 0 1 1.426.1c.143.014.243.071.243.143a.664.664 0 0 1-.085.3 3.664 3.664 0 0 0-.1 1.386v.97h.186c1.071 0 1.413-.029 1.5-.029.158 0 .172.015.172.144v1.014c0 .156-.015.17-.172.17-.085 0-.427-.027-1.5-.027zm3.81 1.826a15.537 15.537 0 0 1-.471 3.952 8.956 8.956 0 0 1-1.4 2.783c-.128.157-.2.242-.285.242s-.172-.085-.328-.228a3.478 3.478 0 0 0-.872-.672 6.022 6.022 0 0 0 1.542-2.725 14.935 14.935 0 0 0 .385-3.91v-1.885c0-.855-.014-1.554-.085-2.325a6.134 6.134 0 0 1 1.3.342 15.971 15.971 0 0 0 3.383-1.012 3.03 3.03 0 0 0 .785-.457 6.8 6.8 0 0 1 .956 1.056.448.448 0 0 1 .114.256c0 .1-.086.172-.229.172a1.225 1.225 0 0 0-.557.144 20.928 20.928 0 0 1-4.238 1.127v1.8h3.767c1.17 0 1.569-.029 1.641-.029.156 0 .171.016.171.158v1.085c0 .144-.015.157-.171.157-.072 0-.471-.028-1.641-.028h-.2v5.122c0 1.142.028 1.7.028 1.771 0 .143-.014.156-.156.156h-1.2c-.143 0-.157-.014-.157-.156 0-.086.029-.629.029-1.771v-5.122zm13.504-1.383a12.569 12.569 0 0 1-.714 3.439 8.637 8.637 0 0 1-4.309 4.666 1.3 1.3 0 0 1-.342.129c-.114 0-.186-.086-.343-.3a3.194 3.194 0 0 0-.9-.828 7.413 7.413 0 0 0 4.438-4.237 11.306 11.306 0 0 0 .6-2.869h-2.227c-1.37 0-1.841.029-1.912.029-.156 0-.171-.015-.171-.158v-1.169c0-.143.015-.156.171-.156.071 0 .542.027 1.912.027h2.3c0-.413.015-.827.015-1.241a11.821 11.821 0 0 0-.128-1.9 15.392 15.392 0 0 1 1.684.157c.214.028.286.1.286.2a.6.6 0 0 1-.129.356 4.031 4.031 0 0 0-.114 1.214c0 .385 0 .8-.013 1.212h3c1.383 0 1.855-.027 1.954-.027.143 0 .171.027.171.17-.029.429-.029.914-.029 1.284a41.361 41.361 0 0 1-.441 6.266c-.257 1.369-.957 1.869-2.384 1.883a10.026 10.026 0 0 1-1.369-.057c-.443-.043-.443-.058-.528-.514a3.568 3.568 0 0 0-.415-1.127 11.264 11.264 0 0 0 2.141.186c.528 0 .9-.2 1.043-.956a34.685 34.685 0 0 0 .37-5.681zm-144.006.187c-.143.143-.227.214-.3.214s-.143-.086-.286-.286a2.828 2.828 0 0 0-.685-.585 7.142 7.142 0 0 0 .657-.671h-.028c-.071 0-.443-.028-1.542-.028h-1c-.015.542-.015 1.056-.043 1.54h1.4c.614 0 .771-.027.856-.027.144 0 .172.027.172.17-.028.442-.028.9-.043 1.542a17.883 17.883 0 0 1-.4 5.022 1.393 1.393 0 0 1-1.483 1.1c-.215 0-.4 0-.6-.014-.229-.014-.257-.028-.3-.385a3.612 3.612 0 0 0-.328-1.084 5.694 5.694 0 0 0 .927.085c.414 0 .5-.143.628-.8a28.271 28.271 0 0 0 .214-4.31h-1.1a13.423 13.423 0 0 1-1.584 6.279c-.1.171-.172.243-.258.243s-.143-.071-.241-.229a3.054 3.054 0 0 0-.8-.913c1.455-2.041 1.584-4.524 1.626-8.219-.843.014-1.157.028-1.228.028-.128 0-.143-.014-.143-.171v-1.042c0-.142.015-.156.143-.156.086 0 .443.027 1.556.027h.585v-.727a6.114 6.114 0 0 0-.1-1.385c.528.015.984.029 1.5.071.157.015.257.072.257.158a.573.573 0 0 1-.1.271 2.377 2.377 0 0 0-.084.884v.727c1.069 0 1.441-.027 1.525-.027.144 0 .158.014.158.156v1.057a7.247 7.247 0 0 0 1.3-2.455 3.292 3.292 0 0 0 .2-.927c.457.072.842.129 1.255.229.186.057.244.114.244.171a.313.313 0 0 1-.086.187 1.625 1.625 0 0 0-.271.57l-.285.771h3.31c1.156 0 1.542-.028 1.626-.028.143 0 .158.013.158.156v1.042c0 .143-.015.157-.158.157-.085 0-.47-.028-1.626-.028h-3.952a8.382 8.382 0 0 1-.743 1.056c.371.014.684.029 1.056.071.157 0 .229.057.229.128a.586.586 0 0 1-.071.258 2.32 2.32 0 0 0-.071.841v.514l1-.257v-.114a14.84 14.84 0 0 0-.084-2.027 9.82 9.82 0 0 1 1.312.1c.142.014.214.071.214.157a1.032 1.032 0 0 1-.072.286 4.047 4.047 0 0 0-.084 1.27l.842-.214c1.184-.314 1.612-.484 1.726-.5.085-.014.115.042.115.143-.014.185-.014.442-.029.785a20.943 20.943 0 0 1-.285 3.226 1.118 1.118 0 0 1-.87.827 2.957 2.957 0 0 1-.758.029c-.212 0-.242-.043-.256-.3a2.631 2.631 0 0 0-.272-.984 2.883 2.883 0 0 0 .658.071.321.321 0 0 0 .356-.3 14.007 14.007 0 0 0 .156-1.912l-1.383.371v1.855c0 1.07.028 1.569.028 1.655 0 .143-.015.157-.171.157h-1.013c-.143 0-.157-.043-.157-.186 0-.086.028-.557.028-1.626v-1.527l-1 .257v3.154c0 .571.028.77.185.885a3.691 3.691 0 0 0 1.655.17c1.342 0 1.784-.042 2-.242.257-.214.328-.472.342-1.514a3.669 3.669 0 0 0 .97.371c.357.115.357.115.328.5-.1 1.27-.371 1.484-.813 1.812a6.624 6.624 0 0 1-3.012.4c-1.541 0-2.069-.057-2.468-.314-.314-.214-.485-.457-.485-1.285v-3.6c-.443.128-.586.186-.642.2-.158.043-.186 0-.229-.143l-.243-.927c-.028-.1-.014-.128.115-.158.086-.014.385-.072 1-.214v-.67a10.685 10.685 0 0 0-.043-1.228zm10.721-2.34a9.306 9.306 0 0 1-1.085 1.383c-.156.158-.228.243-.313.243s-.171-.085-.342-.243a3.664 3.664 0 0 0-.813-.6 7.453 7.453 0 0 0 1.9-2.5 3.575 3.575 0 0 0 .257-.784c.471.057.927.156 1.327.228.157.042.229.085.229.2s-.071.17-.172.228c-.085.058-.128.143-.228.357l-.128.3h1.512c1.213 0 1.613-.027 1.7-.027.143 0 .157.014.157.156v.927c0 .143-.014.157-.157.157-.085 0-.471-.028-1.712-.028a7.63 7.63 0 0 1 .513 1.027c.058.143.058.172-.144.214l-.984.244c-.214.057-.242.028-.284-.115a8.13 8.13 0 0 0-.528-1.37zm6.907 4c1.4 0 1.9-.029 2-.029.129 0 .143.014.143.156 0 .086-.028.286-.028.729v.185c0 .4.028.856.028 1.171a.942.942 0 0 1-.342.87 2.744 2.744 0 0 1-1.542.256c-.456 0-.485 0-.57-.442a2.3 2.3 0 0 0-.257-.728c.457.029.743.044.9.044.314 0 .386-.087.386-.372v-.671h-2.912v.686a11.541 11.541 0 0 0 5.966 3.1 4.792 4.792 0 0 0-.6.941c-.143.271-.186.371-.3.371a1.06 1.06 0 0 1-.343-.085 10.988 10.988 0 0 1-4.766-2.868c.015 1.684.071 2.854.071 3.139 0 .143-.014.157-.157.157h-1.171c-.128 0-.142-.014-.142-.157 0-.286.058-1.384.071-3.054a12.834 12.834 0 0 1-4.595 2.812 1.068 1.068 0 0 1-.342.085c-.128 0-.186-.1-.313-.371a4.245 4.245 0 0 0-.6-.842 12.623 12.623 0 0 0 5.808-3.21v-.7h-2.668v1.2c0 .57.028.8.028.885 0 .143-.014.156-.142.156h-1.171c-.143 0-.155-.014-.155-.156 0-.1.027-.343.027-1.027v-1.057c0-.67-.027-.941-.027-1.042 0-.142.013-.156.155-.156.1 0 .6.029 2 .029h1.956v-.728h-3.332c-1.312 0-1.755.029-1.84.029-.158 0-.171-.014-.171-.157v-1c0-.143.014-.158.171-.158.085 0 .528.029 1.84.029h3.325a5.249 5.249 0 0 0-.086-1.07c.442.014.87.057 1.313.1l-.142-.114a3.247 3.247 0 0 0-.8-.442 6.943 6.943 0 0 0 1.412-2.2 3.72 3.72 0 0 0 .214-.771c.4.058.971.158 1.271.215.142.042.213.085.213.2s-.057.156-.156.228-.115.157-.2.4a1.892 1.892 0 0 0-.1.256h2.126c1.342 0 1.813-.027 1.9-.027.143 0 .157.014.157.156v.927c0 .143-.014.157-.157.157-.085 0-.556-.028-1.9-.028h-.371a6.007 6.007 0 0 1 .542 1.041c.057.143.042.172-.129.214l-.941.229c-.214.057-.257.028-.3-.115a8.019 8.019 0 0 0-.627-1.37h-.885a8.54 8.54 0 0 1-.629.87.886.886 0 0 1-.227.257.1.1 0 0 1 .056.085.463.463 0 0 1-.071.228 1.452 1.452 0 0 0-.071.571h3.5c1.312 0 1.755-.029 1.841-.029.157 0 .171.015.171.158v1c0 .143-.014.157-.171.157-.085 0-.529-.029-1.841-.029h-3.5v.728zm11.604-1.846a12.569 12.569 0 0 1-.714 3.439 8.637 8.637 0 0 1-4.309 4.666 1.3 1.3 0 0 1-.342.129c-.114 0-.185-.086-.343-.3a3.206 3.206 0 0 0-.9-.828 7.411 7.411 0 0 0 4.438-4.237 11.285 11.285 0 0 0 .6-2.869h-2.227c-1.371 0-1.842.029-1.913.029-.157 0-.171-.015-.171-.158v-1.169c0-.143.014-.156.171-.156.071 0 .542.027 1.913.027h2.3c0-.413.015-.827.015-1.241a11.71 11.71 0 0 0-.128-1.9 15.349 15.349 0 0 1 1.683.157c.214.028.286.1.286.2a.6.6 0 0 1-.129.356 4.071 4.071 0 0 0-.114 1.214c0 .385 0 .8-.014 1.212h3c1.383 0 1.855-.027 1.955-.027.143 0 .171.027.171.17-.028.429-.028.914-.028 1.284a41.416 41.416 0 0 1-.442 6.266c-.258 1.369-.957 1.869-2.384 1.883a10.034 10.034 0 0 1-1.37-.057c-.442-.043-.442-.058-.528-.514a3.568 3.568 0 0 0-.414-1.127 11.264 11.264 0 0 0 2.141.186c.528 0 .9-.2 1.042-.956a34.512 34.512 0 0 0 .371-5.681zm-67.595-105.403c0 1.37.042 2.141.042 2.854 0 .785-.114 1.17-.457 1.413a2.527 2.527 0 0 1-1.57.314c-.442.015-.442.015-.556-.428a4.562 4.562 0 0 0-.342-1.027 8.214 8.214 0 0 0 1.041.043c.357 0 .442-.128.442-.542v-2.812c-.214.072-.414.143-.613.2a1.6 1.6 0 0 0-.5.243.377.377 0 0 1-.228.085c-.086 0-.143-.057-.171-.171a10.768 10.768 0 0 1-.243-1.37 8.9 8.9 0 0 0 1.3-.271l.456-.128v-2.668h-.186c-.97 0-1.255.028-1.34.028-.143 0-.158-.014-.158-.157v-1.042c0-.143.015-.157.158-.157.085 0 .371.029 1.34.029h.186v-.76a13.9 13.9 0 0 0-.1-2.026c.528.014.957.042 1.456.1.128.015.228.071.228.157a.752.752 0 0 1-.1.3 4.408 4.408 0 0 0-.085 1.441v.785c.841 0 1.126-.029 1.212-.029.143 0 .157.014.157.157v1.042c0 .143-.014.157-.157.157-.086 0-.372-.028-1.212-.028v2.211c.4-.156.813-.313 1.227-.513-.028.285-.043.6-.057.928 0 .471-.014.442-.427.626l-.742.329zm3.567-1.042c-1.355 0-1.84.028-1.926.028-.143 0-.157-.013-.157-.143v-.97c0-.157.015-.171.157-.171.086 0 .571.028 1.926.028h4.2c1.371 0 1.84-.028 1.926-.028.158 0 .171.014.171.171v.97c0 .129-.014.143-.171.143-.086 0-.556-.028-1.926-.028h-1.541v1.356h1.271c1 0 1.355-.029 1.455-.029.143 0 .157.015.157.157v.928c0 .143-.014.156-.157.156-.1 0-.457-.028-1.455-.028h-1.271v1.5a14.669 14.669 0 0 0 2.069.143c.656 0 1.255-.015 1.912-.057a3.473 3.473 0 0 0-.256.914c-.058.47-.115.484-.528.484h-.97c-2.669-.042-4.4-.484-5.509-2.054a6.918 6.918 0 0 1-1.355 1.94c-.128.129-.214.2-.286.2-.1 0-.186-.087-.328-.257a2.8 2.8 0 0 0-.742-.657 5.6 5.6 0 0 0 2.069-3.454 4.713 4.713 0 0 0 .114-.814c.457.1.771.171 1.17.286.186.057.271.1.271.214a.353.353 0 0 1-.114.243 1.084 1.084 0 0 0-.143.371c-.072.242-.129.485-.2.713a3.289 3.289 0 0 0 1.427 1.37v-3.625zm3.326-6.864c1.241 0 1.654-.029 1.74-.029.143 0 .157.015.157.172 0 .085-.029.441-.029 1.3v1.984c0 .842.029 1.213.029 1.3 0 .143-.015.158-.157.158-.086 0-.5-.03-1.74-.03h-2.783c-1.255 0-1.669.03-1.755.03-.143 0-.158-.015-.158-.158 0-.1.028-.456.028-1.3v-1.984c0-.856-.028-1.213-.028-1.3 0-.157.015-.172.158-.172.085 0 .5.029 1.755.029zm-3.283 1.1v.828h3.753v-.828zm3.753 1.841h-3.753v.842h3.753zm13.732 1.069a6.192 6.192 0 0 1-1.328 1.4c1.114.3 2.241.642 3.439 1.056.071.028.113.057.113.1a.335.335 0 0 1-.084.156l-.572.758c-.114.171-.157.171-.3.113-1.284-.514-2.567-1-3.9-1.4a7.942 7.942 0 0 1-1.526.556c.456.016.855.059 1.3.1.143.014.214.084.214.155a2.274 2.274 0 0 1-.086.372 2.724 2.724 0 0 0-.057.557h3.7c1.27 0 1.712-.028 1.8-.028.157 0 .172.014.172.156v.928c0 .144-.015.157-.172.157-.085 0-.528-.028-1.8-.028h-2.7a13.146 13.146 0 0 0 4.995 1.927 3.534 3.534 0 0 0-.6.956c-.171.413-.2.4-.627.285a11.131 11.131 0 0 1-4.794-2.625c.014 1.44.057 2.468.057 2.753 0 .143-.015.157-.158.157h-1.169c-.144 0-.158-.015-.158-.157 0-.285.057-1.256.071-2.726a12.442 12.442 0 0 1-4.651 2.611 1.531 1.531 0 0 1-.329.071c-.128 0-.186-.085-.314-.328a3.486 3.486 0 0 0-.6-.87 13.851 13.851 0 0 0 4.809-2.055h-2.455c-1.27 0-1.712.028-1.8.028-.156 0-.171-.014-.171-.157v-.928c0-.143.015-.156.171-.156.086 0 .528.028 1.8.028h3.51a9.6 9.6 0 0 0-.1-1.142 22.131 22.131 0 0 1-3.938.556c-.356.029-.4.015-.513-.3a2.844 2.844 0 0 0-.472-.842 22.889 22.889 0 0 0 4.709-.528c-.428-.1-.885-.2-1.341-.285-.1.1-.2.186-.286.257-.1.1-.129.1-.357.028l-.812-.257c-.2-.058-.186-.156-.085-.243.242-.214.513-.5.756-.742l.386-.428h-1.242c-1.3 0-1.742.029-1.827.029-.158 0-.171-.015-.171-.143v-.871c0-.143.013-.157.171-.157.085 0 .528.029 1.827.029h2.1l.071-.114a5.819 5.819 0 0 0 .514-.971c.513.071.955.157 1.384.258.1.027.171.084.171.185 0 .071-.085.143-.186.2a1.383 1.383 0 0 0-.4.442h4.639c1.3 0 1.741-.029 1.827-.029.143 0 .156.015.156.157v.871c0 .128-.014.143-.156.143-.086 0-.528-.029-1.827-.029zm-7.764-1.626c0 .128-.014.143-.156.143h-1.145c-.157 0-.172-.015-.172-.143 0-.1.029-.2.029-1.085v-.229c0-.228-.029-.356-.029-.441 0-.144.015-.158.172-.158.085 0 .571.029 1.927.029h2.9a4.825 4.825 0 0 0-.1-1.027c.513 0 1.028.028 1.528.071.128.015.213.071.213.143a.729.729 0 0 1-.085.285 1.51 1.51 0 0 0-.057.528h3.1c1.342 0 1.827-.029 1.928-.029.143 0 .157.015.157.158 0 .085-.029.214-.029.4v.271c0 .885.029 1 .029 1.085 0 .128-.014.143-.157.143h-1.156c-.143 0-.157-.015-.157-.143v-.743h-8.741zm3.126 1.626a7.2 7.2 0 0 1-.471.586c.77.127 1.527.285 2.268.441a5.234 5.234 0 0 0 1.27-1.027zm15.671.143a12.6 12.6 0 0 1-.713 3.44 8.646 8.646 0 0 1-4.31 4.667 1.329 1.329 0 0 1-.341.127c-.115 0-.186-.085-.343-.3a3.2 3.2 0 0 0-.9-.828 7.416 7.416 0 0 0 4.438-4.238 11.294 11.294 0 0 0 .6-2.869h-2.227c-1.371 0-1.841.029-1.913.029-.157 0-.171-.014-.171-.158v-1.17c0-.143.015-.157.171-.157.071 0 .542.028 1.913.028h2.3c0-.414.015-.827.015-1.241a11.65 11.65 0 0 0-.128-1.9 15.011 15.011 0 0 1 1.684.158c.213.029.285.1.285.2a.594.594 0 0 1-.129.356 4.05 4.05 0 0 0-.114 1.213c0 .386 0 .8-.015 1.213h3c1.383 0 1.854-.028 1.955-.028.143 0 .171.028.171.171-.029.428-.029.914-.029 1.284a41.345 41.345 0 0 1-.442 6.266c-.257 1.37-.956 1.869-2.383 1.883a10.107 10.107 0 0 1-1.37-.057c-.442-.043-.442-.056-.528-.514a3.573 3.573 0 0 0-.414-1.127 11.262 11.262 0 0 0 2.14.186c.528 0 .9-.2 1.042-.956a34.458 34.458 0 0 0 .371-5.681z" fill="#00a0e9"/></g></svg>